<?xml version="1.0" encoding="UTF-8"?>
<svg xmlns="http://www.w3.org/2000/svg" xml:space="preserve" viewBox="27.98 21.56 73.27 63.7">
  <path fill="currentColor" d="M43.35 32.6H41.7v10.8h1.66V32.6m-3.33 0h-1.67v10.8h1.67V32.6m-3.33 0h-1.66v10.8h1.66V32.6m-3.33 0h-1.66v10.8h1.66V32.6m13.31 0H45v10.8h1.67V32.6m3.33 0h-1.66v10.8H50V32.6m3.33 0h-1.67v10.8h1.67V32.6m1.7 14.12H30.01v-1.67h25.02v1.67m-1.7-15.79H31.7l-1.66-1.66h24.94l-1.66 1.66m3.38 19.11H28.34v-1.66h28.34v1.66m.02-23.46-14.18-5.02-14.17 5.02v1.77l14.17-5.02 14.17 5.02v-1.77M42.1 63.11h-3.57v5.34h-1.67V56.69h1.67v5.01h3.58v-5h1.66v11.75h-1.66v-5.34m36.43 11.38c.74 0 1.43.24 1.75.49v-1.5c-.32-.2-1.1-.41-1.9-.41-2.2 0-3.41 1.25-3.41 3.07 0 1.52.64 2.25 1.68 3.14l.94.82c.78.65 1.27 1.16 1.27 2.14 0 1.14-.76 1.6-1.9 1.6-.85 0-1.56-.25-1.98-.53v1.52c.37.21 1.12.43 2.14.42 2.2 0 3.41-1.25 3.42-3.07 0-1.52-.65-2.25-1.68-3.14l-.95-.82c-.78-.67-1.27-1.15-1.26-2.13 0-1.15.75-1.6 1.88-1.6m-10.21.21v4.14h.88c1.3 0 2.17-.28 2.17-2.08s-.86-2.07-2.17-2.07zm-1.67-1.42h2.72c2.17 0 3.72.82 3.72 3.48 0 1.86-.9 2.76-2.04 3.18l2.5 5.1h-1.9l-2.21-4.8h-1.12v4.8h-1.67V73.28M28.35 81.5v-8.22H30v8.29c0 1.73.6 2.24 1.8 2.24 1.22 0 1.82-.5 1.82-2.24v-8.29h1.66v8.21c0 2.68-1.12 3.77-3.47 3.77-2.39 0-3.47-1.05-3.47-3.77m9.1-8.21h1.92l3.7 9.37c-.12-.96-.23-2.08-.23-3.13v-6.24h1.6v11.76H42.5l-3.75-9.4c.15.95.28 2.1.28 3.16v6.24h-1.6V73.28m9.35 0h1.67v11.76h-1.67V73.28m3.22 0h1.73l1.48 6.12c.22.92.49 2.47.65 3.7.17-1.23.44-2.78.69-3.7L56 73.28h1.69L54.7 85.04h-1.73l-2.99-11.76m9.26 0h5.5v1.41h-3.83v3.6H64v1.4h-3.1v3.94h3.84v1.41h-5.5V73.28m23.28 0h1.66v11.76h-1.66V73.28M27.98 62.57c0-4.63 1.23-6.1 4.3-6.1.86 0 1.78.24 2.18.48v1.53a4.54 4.54 0 0 0-2.06-.52c-1.96 0-2.7.72-2.7 4.61 0 3.85.53 4.65 2.23 4.65.52 0 .96-.07 1.28-.16v-3.93h-1.73v-1.4h3.4v6.34c-.35.22-1.72.6-2.93.6-3.19 0-3.97-1.67-3.97-6.1m18.15-5.87h5.5v1.4h-3.84v3.6h3.1v1.4h-3.1v3.94h3.84v1.41h-5.5V56.69m7.42.01h1.91l3.71 9.36c-.12-.96-.23-2.08-.23-3.13V56.7h1.59v11.76H58.6l-3.74-9.4c.14.95.27 2.1.27 3.16v6.24h-1.6V56.69m8.52.01h6.75v1.4h-2.55v10.35h-1.67V58.11h-2.53v-1.42m34.34 23.47-3.22-6.88h1.82l1.4 3.17c.32.76.63 1.57.83 2.3.22-.73.54-1.54.87-2.3l1.4-3.17h1.76l-3.2 6.88v4.88H96.4v-4.88m-10.63-6.88h6.74v1.41h-2.55v10.35H88.3V74.69h-2.53v-1.4"></path>
</svg>
